<svg width="966" height="755" viewBox="0 0 966 755" fill="none" xmlns="http://www.w3.org/2000/svg">
<path fill-rule="evenodd" clip-rule="evenodd" d="M946.79 2.94658C940.287 -1.29403 933.431 0.0338819 927.654 3.38661C921.906 6.72198 916.983 12.17 913.932 16.7589C895.171 44.9789 890.218 81.4767 887.954 114.016C885.071 155.442 885.816 197.252 886.558 238.855C886.844 254.882 887.129 270.879 887.206 286.811C887.376 321.871 887.19 356.904 886.401 391.929C876.663 418.768 866.3 445.384 855.389 471.78C855.229 471.472 855.056 471.172 854.87 470.878C854.532 470.348 854.282 469.97 854.117 469.753C854.091 469.72 854.059 469.679 854.021 469.634C853.996 469.605 853.969 469.574 853.941 469.544C853.927 469.53 853.909 469.511 853.886 469.489C853.851 469.454 853.806 469.413 853.751 469.37L853.747 469.367C853.697 469.327 853.437 469.123 853.043 469.061C852.793 469.022 852.418 469.031 852.044 469.252C851.673 469.47 851.488 469.788 851.402 470.01C851.265 470.369 851.305 470.682 851.313 470.745L851.314 470.75C851.336 470.931 851.388 471.081 851.405 471.127L851.405 471.128L851.406 471.131C851.484 471.354 851.638 471.681 851.78 471.973C851.88 472.179 851.996 472.414 852.119 472.661C852.19 472.804 852.263 472.95 852.337 473.098C852.766 473.957 853.209 474.835 853.666 475.728C853.677 475.772 853.687 475.816 853.697 475.86C848.675 487.938 843.539 499.969 838.296 511.954C834.857 515.224 831.162 518.21 827.568 520.906C797.013 543.822 759.859 554.769 723.044 564.091C722.998 557.129 722.94 550.169 722.877 543.213C722.566 509.228 721.239 475.251 719.911 441.289L719.911 441.286V441.283C718.388 402.304 716.865 363.344 716.882 324.414C730.271 323.662 742.087 316.315 751.832 306.66C761.745 296.84 769.654 284.498 775.071 273.797C781.828 260.447 785.048 243.32 787.917 228.057L787.92 228.036C788.546 224.711 789.154 221.474 789.779 218.384C790.637 214.142 790.997 210.601 789.769 207.628C788.504 204.565 785.723 202.466 781.296 200.637C770.566 196.205 758.378 194.828 746.97 195.319C738.772 195.672 732.691 198.229 728.225 202.371C723.785 206.488 721.07 212.052 719.363 218.201C717.656 224.348 716.928 231.183 716.532 237.944C716.334 241.33 716.218 244.716 716.108 248.001L716.1 248.235C715.992 251.444 715.887 254.548 715.715 257.489C714.466 278.786 713.941 300.114 713.889 321.456C706.695 321.239 697.305 318.767 690.284 314.234C687.198 312.242 684.639 309.896 682.91 307.238C683.91 305.785 684.744 304.231 685.371 302.583C686.021 300.877 686.658 298.639 686.993 296.36C687.322 294.112 687.383 291.663 686.739 289.624C686.566 289.078 686.292 288.546 685.846 288.138C685.374 287.704 684.801 287.497 684.221 287.483C683.196 287.457 682.292 288.031 681.712 288.483C681.066 288.986 680.477 289.615 680.028 290.169C679.61 290.685 679.193 291.285 679.007 291.75C676.827 297.201 677.077 302.128 679.028 306.396C679.123 306.604 679.222 306.809 679.324 307.013C676.765 310.125 673.258 312.696 669.31 314.526C663.226 317.346 656.314 318.298 650.644 316.881C646.766 315.911 640.013 313.786 633.895 310.834C630.835 309.358 627.983 307.698 625.738 305.905C623.472 304.095 621.96 302.256 621.361 300.459C621.099 299.673 620.25 299.249 619.464 299.511C618.678 299.773 618.253 300.622 618.515 301.408C619.379 303.999 621.404 306.283 623.866 308.249C626.35 310.233 629.418 312.005 632.591 313.536C638.937 316.597 645.892 318.785 649.917 319.791C656.385 321.408 664.003 320.292 670.572 317.248C674.507 315.424 678.146 312.87 680.966 309.707C682.95 312.457 685.635 314.804 688.657 316.755C696.183 321.613 706.148 324.24 713.885 324.457C713.869 363.501 715.396 402.591 716.92 441.631C718.245 475.56 719.568 509.45 719.877 543.24C719.943 550.441 720.003 557.643 720.048 564.846C643.234 584.051 564.935 592.331 485.846 596.538C463.233 597.741 440.554 598.711 417.865 599.682L417.857 599.682L417.849 599.683C391.362 600.816 364.862 601.95 338.442 603.455C292.804 606.054 247.206 609.245 201.644 612.902C197.048 613.271 192.114 613.843 187.075 614.428C183.693 614.82 180.263 615.218 176.858 615.563C168.308 616.43 159.777 616.984 151.975 616.397C136.866 615.259 120.96 609.497 106.715 604.287C86.4488 596.874 66.0471 588.236 47.633 577.046C33.5876 568.511 25.206 554.785 19.5682 539.248C14.8387 526.213 12.0894 512.057 9.51258 498.789C9.01196 496.211 8.51784 493.667 8.01698 491.171C1.31571 457.776 1.5528 430.331 17.1068 399.554C23.407 387.087 31.0675 375.507 38.947 363.978C40.0822 362.317 41.2222 360.656 42.3633 358.994L42.3722 358.981L42.3835 358.965C49.1409 349.123 55.9354 339.227 61.9831 328.832C84.755 289.693 130.571 264.238 173.171 252.103C208.417 242.063 245.153 236.803 281.634 242.327C291.034 243.75 300.313 245.889 309.643 248.095C310.369 248.267 311.095 248.439 311.822 248.611L311.823 248.611C320.418 250.647 329.067 252.696 337.824 254.221C351.608 256.62 363.478 260.053 375.636 266.132C376.377 266.503 377.278 266.202 377.648 265.461C378.019 264.72 377.719 263.819 376.978 263.449C364.497 257.208 352.332 253.701 338.339 251.265C329.675 249.757 321.111 247.728 312.5 245.688L312.499 245.688C311.777 245.517 311.055 245.346 310.333 245.175C301.007 242.971 291.619 240.804 282.083 239.361C245.032 233.751 207.839 239.109 172.349 249.218C129.386 261.456 82.7147 287.235 59.3901 327.324C53.4036 337.613 46.6806 347.405 39.9208 357.251L39.8942 357.29L39.8674 357.329C38.7349 358.979 37.6014 360.63 36.4702 362.285C28.5846 373.824 20.8259 385.543 14.4293 398.2C-1.52735 429.774 -1.70675 457.962 5.07562 491.761C5.5684 494.217 6.05673 496.732 6.55345 499.291L6.55487 499.299C9.12981 512.564 11.9308 526.994 16.7481 540.271C22.5063 556.141 31.2153 570.58 46.0751 579.61C64.7294 590.946 85.3378 599.662 105.685 607.105C119.849 612.285 136.152 618.213 151.75 619.388C159.824 619.996 168.568 619.419 177.161 618.548C180.666 618.192 184.126 617.79 187.511 617.397L187.516 617.397L187.52 617.396C192.499 616.818 197.318 616.259 201.884 615.892C247.426 612.237 293 609.048 338.613 606.45C365.08 604.942 391.503 603.812 417.938 602.682L417.945 602.681L417.953 602.681C440.616 601.712 463.289 600.742 486.006 599.534C564.945 595.335 643.218 587.077 720.067 567.933C720.302 608.481 720.061 649.054 717.945 689.505C717.103 705.619 716.413 713.355 715.346 725.324L715.346 725.329C715.055 728.589 714.737 732.164 714.379 736.307C714.34 736.762 714.299 737.219 714.256 737.678C714.191 738.38 714.123 739.086 714.055 739.795C713.795 742.495 713.531 745.24 713.408 747.97C713.396 748.247 713.333 748.605 713.234 749.095L713.216 749.181L713.193 749.295C713.109 749.704 713.01 750.186 712.951 750.646C712.884 751.172 712.844 751.838 713.013 752.485C713.2 753.202 713.649 753.891 714.471 754.293C715.339 754.718 716.199 754.573 716.863 754.156C717.426 753.803 717.834 753.27 718.115 752.851C718.393 752.436 718.649 751.97 718.86 751.585L718.898 751.516C719.137 751.08 719.313 750.768 719.469 750.553C722 747.053 724.326 743.417 726.531 739.735C737.742 721.012 758.656 683.314 766.882 667.52C793.134 617.116 817.974 565.852 840.802 513.71C847.625 507.133 853.591 499.277 855.805 490.185C856.374 487.851 856.918 485.005 857.091 482.093C861.093 489.096 866.047 496.115 872.373 500.575C875.397 502.706 878.708 504.163 882.158 505.062C880.233 548.348 877.837 591.772 873.085 634.534C872.048 643.874 871.44 652.932 871.44 662.365C871.44 663.193 872.112 663.865 872.94 663.865C873.769 663.865 874.44 663.193 874.44 662.365C874.44 653.064 875.039 644.119 876.067 634.865C880.81 592.182 883.211 548.841 885.133 505.695C890.961 506.673 897.056 506.206 902.745 504.822C904.866 504.306 906.35 503.26 907.185 501.715C907.982 500.239 908.056 498.538 907.895 496.955C907.732 495.363 907.305 493.676 906.907 492.136L906.852 491.922L906.851 491.92L906.85 491.916C906.461 490.411 906.111 489.058 905.961 487.859C905.177 481.589 904.865 474.969 905.104 468.564C905.423 469.504 905.656 470.274 905.703 470.445C908.18 479.449 911.282 489.076 916.624 496.353C922.037 503.728 929.763 508.699 941.264 508.285C947.201 508.071 953.399 507.684 958.002 505.487C960.354 504.364 962.352 502.744 963.686 500.397C965.016 498.058 965.609 495.131 965.39 491.524C964.934 483.997 962.814 476.886 960.562 469.971C960.265 469.06 959.966 468.153 959.668 467.249L959.668 467.248L959.668 467.247C957.689 461.239 955.752 455.361 954.738 449.275C954.602 448.458 953.829 447.906 953.012 448.042C952.194 448.179 951.642 448.951 951.779 449.769C952.834 456.1 954.851 462.217 956.826 468.208C956.958 468.611 957.091 469.014 957.223 469.415C957.386 469.911 957.548 470.406 957.71 470.901C959.958 477.802 961.965 484.595 962.396 491.705C962.589 494.891 962.051 497.203 961.078 498.915C960.109 500.619 958.633 501.861 956.71 502.779C952.763 504.664 947.207 505.069 941.157 505.287C930.78 505.66 923.952 501.266 919.042 494.578C914.061 487.791 911.072 478.655 908.596 469.65C908.487 469.253 907.712 466.719 906.905 464.841C906.702 464.368 906.482 463.902 906.256 463.51C906.069 463.185 905.75 462.673 905.284 462.355C905.022 462.177 904.511 461.923 903.87 462.076C903.234 462.228 902.887 462.682 902.728 462.965C902.438 463.479 902.349 464.149 902.307 464.735C901.757 472.441 902.029 480.592 902.984 488.231C903.159 489.63 903.556 491.162 903.928 492.6L904.002 492.887C904.409 494.46 904.775 495.929 904.91 497.259C905.047 498.599 904.924 499.587 904.545 500.289C904.203 500.922 903.532 501.543 902.036 501.907C896.5 503.254 890.704 503.65 885.267 502.673C885.694 492.969 886.1 483.275 886.504 473.602L886.505 473.587C886.842 465.521 887.179 457.47 887.528 449.438C888.351 430.454 888.959 411.472 889.389 392.489C897.413 370.356 905.014 348.071 912.149 325.632C937.953 244.475 956.057 159.923 960.26 74.6295C960.34 72.9965 960.465 71.079 960.605 68.9398L960.605 68.9339C961.147 60.6465 961.905 49.036 961.122 37.7699C960.629 30.6689 959.521 23.6121 957.324 17.5271C955.128 11.4443 951.799 6.21375 946.79 2.94658ZM882.294 501.988C882.712 492.477 883.11 482.973 883.506 473.486C883.844 465.413 884.181 457.352 884.53 449.308C885.225 433.3 885.766 417.292 886.176 401.282C876.972 426.277 867.232 451.076 857.02 475.682C861.411 484.102 866.852 493.012 874.102 498.123C876.62 499.898 879.385 501.163 882.294 501.988ZM854.027 482.857C850.863 490.4 847.655 497.926 844.405 505.433C848.368 500.604 851.477 495.279 852.891 489.475C853.372 487.501 853.819 485.201 854.027 482.857ZM835.4 518.545C833.375 520.238 831.342 521.825 829.368 523.306C798.086 546.767 760.109 557.82 723.063 567.181C723.305 607.995 723.074 648.883 720.941 689.662C720.096 705.836 719.401 713.625 718.333 725.61C718.042 728.868 717.724 732.435 717.368 736.565C717.263 737.78 717.148 738.98 717.033 740.171C716.777 742.834 716.525 745.454 716.405 748.105C716.381 748.646 716.269 749.221 716.174 749.692L716.128 749.918C716.081 750.145 716.038 750.354 716.002 750.552C716.086 750.403 716.173 750.245 716.266 750.076L716.268 750.071L716.273 750.063C716.489 749.669 716.754 749.187 717.038 748.794C719.504 745.386 721.782 741.827 723.957 738.194C735.135 719.526 756.02 681.881 764.222 666.134C789.433 617.727 813.336 568.537 835.4 518.545ZM909.29 324.723C903.069 344.29 896.492 363.74 889.588 383.075C890.219 350.989 890.361 318.9 890.206 286.796C890.129 270.784 889.843 254.742 889.557 238.692L889.556 238.673V238.672C888.815 197.118 888.073 155.51 890.946 114.224C893.209 81.7089 898.144 45.9258 916.431 18.4198C919.313 14.0849 923.925 9.01872 929.159 5.98136C934.363 2.96136 939.935 2.05799 945.151 5.45941C949.424 8.24633 952.435 12.8216 954.502 18.5459C956.568 24.2679 957.646 31.0194 958.129 37.9778C958.896 49.015 958.158 60.3395 957.618 68.6293V68.6304L957.617 68.6481C957.475 70.8217 957.347 72.7863 957.263 74.4818C953.077 159.456 935.037 243.747 909.29 324.723ZM749.721 304.529C740.293 313.87 729.191 320.66 716.887 321.409C716.94 300.151 717.464 278.902 718.71 257.665C718.884 254.686 718.99 251.549 719.097 248.355L719.106 248.102C719.216 244.813 719.331 241.462 719.527 238.12C719.919 231.425 720.633 224.842 722.254 219.004C723.874 213.168 726.373 208.179 730.265 204.57C734.13 200.986 739.498 198.643 747.099 198.316C758.208 197.838 769.935 199.19 780.15 203.41C784.317 205.131 786.188 206.816 786.996 208.773C787.842 210.821 787.699 213.537 786.838 217.79C786.193 220.982 785.57 224.293 784.934 227.668L784.933 227.675C782.06 242.932 778.938 259.514 772.394 272.442C767.072 282.957 759.336 295.003 749.721 304.529ZM682.568 301.515C682.227 302.41 681.812 303.279 681.331 304.118C680.134 300.87 680.084 297.136 681.793 292.864C681.791 292.869 681.791 292.868 681.794 292.862L681.795 292.861C681.798 292.855 681.804 292.843 681.813 292.827C681.835 292.789 681.873 292.725 681.934 292.631C682.04 292.471 682.185 292.272 682.359 292.057C682.715 291.618 683.144 291.17 683.555 290.85C683.696 290.74 683.812 290.663 683.903 290.609C684.322 292.007 684.322 293.895 684.024 295.925C683.725 297.964 683.149 299.99 682.568 301.515ZM236.444 277.492C239.921 276.136 244.882 274.696 249.884 274.065C254.936 273.427 259.776 273.646 263.191 275.354C271.318 279.417 275.182 287.978 276.028 297.615C276.872 307.244 274.653 317.591 271.007 324.637C263.275 339.581 250.12 349.246 234.985 356.303C222.605 362.075 209.027 366.048 196.146 369.752C194.654 370.087 193.17 370.452 191.703 370.812L191.184 370.94C190.71 371.056 190.237 371.172 189.766 371.286C186.564 372.06 183.426 372.75 180.271 373.066C180.107 373.082 179.972 373.097 179.869 373.11C179.819 373.117 179.764 373.124 179.711 373.133C179.697 373.136 179.68 373.139 179.66 373.143C179.643 373.146 179.625 373.15 179.606 373.154L179.605 373.154C179.579 373.16 179.478 373.183 179.361 373.23L179.359 373.231C179.316 373.248 179.135 373.32 178.948 373.477C178.851 373.559 178.653 373.745 178.526 374.057C178.374 374.428 178.369 374.867 178.557 375.266C178.716 375.603 178.956 375.789 179.075 375.869C179.205 375.958 179.322 376.006 179.386 376.03C179.513 376.079 179.619 376.099 179.659 376.106C179.796 376.13 179.921 376.131 179.944 376.131L179.947 376.131C180.038 376.133 180.148 376.13 180.252 376.126C180.687 376.108 181.512 376.054 182.476 375.97C184.349 375.808 187.036 375.514 188.428 375.105C190.774 374.417 193.171 373.728 195.605 373.029L195.63 373.022L195.643 373.018L196.904 372.656C197.944 372.423 198.982 372.207 200.023 372.018C216.667 369.001 233.279 368.263 247.584 372.461C261.814 376.637 273.833 385.713 281.383 402.54C291.542 425.183 289.792 449.208 273.572 468.487C253.653 492.162 222.357 493.929 192.779 495.598L192.383 495.62C191.793 495.654 190.517 495.774 188.782 495.938L188.774 495.939L188.772 495.939C187.47 496.062 185.91 496.21 184.189 496.363C180.122 496.726 175.059 497.13 170.044 497.36C165.016 497.59 160.09 497.64 156.278 497.308C154.365 497.142 152.803 496.884 151.673 496.534C150.441 496.153 150.121 495.783 150.081 495.703C149.71 494.962 148.809 494.662 148.068 495.033C147.327 495.403 147.027 496.304 147.397 497.045C148.033 498.316 149.461 498.99 150.786 499.4C152.213 499.842 154.017 500.123 156.017 500.297C160.031 500.647 165.116 500.588 170.181 500.357C175.258 500.124 180.37 499.716 184.455 499.351C186.28 499.189 187.883 499.037 189.187 498.913C190.837 498.757 192.009 498.646 192.552 498.615L193.516 498.561C222.641 496.92 255.11 495.09 275.867 470.418C285.231 459.289 289.985 446.651 290.621 433.62H294.727C294.557 436.829 294.489 440.124 294.489 443.572C294.489 444.288 294.431 445.12 294.364 446.07L294.36 446.116L294.36 446.118L294.36 446.118C294.295 447.034 294.223 448.041 294.207 449.044C294.174 451.022 294.34 453.315 295.467 455.087C298.067 459.173 302.154 462.027 306.565 463.994C310.984 465.964 315.831 467.092 320.107 467.667C328.476 468.794 334.907 468.867 340.484 466.686C346.101 464.489 350.615 460.104 355.396 452.878C358.489 448.203 361.415 442.808 364.401 437.303L364.401 437.303L364.702 436.748C367.806 431.027 370.991 425.191 374.563 419.777C381.72 408.931 390.261 400.043 402.371 397.291C410.006 395.555 415.833 397.033 420.375 400.414C424.98 403.843 428.411 409.34 430.945 415.882C436.016 428.977 437.268 445.639 437.649 456.121C437.703 457.595 437.722 459.068 437.727 460.548C437.723 461.327 437.72 462.094 437.719 462.793C437.717 464.041 437.717 465.082 437.719 465.604C437.719 465.734 437.72 465.834 437.72 465.897C437.72 465.926 437.721 465.955 437.721 465.976C437.721 465.981 437.721 465.992 437.722 466.006C437.722 466.011 437.723 466.027 437.724 466.047L437.725 466.065C437.726 466.078 437.727 466.094 437.728 466.105C437.732 466.141 437.755 466.275 437.78 466.373C438.232 467.084 440.016 467.229 440.653 466.405C440.683 466.295 440.709 466.145 440.714 466.106C440.715 466.095 440.716 466.084 440.717 466.073C440.718 466.06 440.718 466.049 440.719 466.04L440.72 466.018C440.721 465.998 440.721 465.982 440.721 465.978C440.722 465.951 440.722 465.884 440.722 465.778C440.723 465.662 440.723 465.499 440.723 465.288C440.723 464.706 440.724 464.121 440.725 463.534L440.726 463.458C440.728 462.494 440.73 461.525 440.727 460.553C440.737 458.576 440.758 456.545 440.796 455.372C440.815 454.79 440.833 454.165 440.851 453.504C440.988 448.587 441.183 441.633 442.522 435.286C444.07 427.951 446.98 422.229 452.264 420.775C455.831 419.792 458.515 419.679 460.535 420.129C462.514 420.569 463.942 421.565 465.019 423.002C467.272 426.009 468.05 431.019 468.253 437.148C468.343 439.87 468.321 442.723 468.298 445.616V445.616V445.617V445.62L468.291 446.553C468.267 449.749 468.257 452.977 468.421 456.026C468.744 462.011 469.745 467.774 473.087 471.302C476.083 474.465 480.793 475.374 485.262 475.558C488.461 475.689 491.834 475.449 494.708 475.245L494.709 475.245C495.866 475.162 496.943 475.086 497.895 475.041C504.236 474.746 510.189 473.462 515.992 471.9C518.507 471.223 520.945 470.51 523.372 469.799L523.376 469.798L523.378 469.797C526.648 468.84 529.898 467.889 533.291 467.041C534.095 466.84 534.583 466.025 534.382 465.222C534.181 464.418 533.367 463.929 532.563 464.13C529.169 464.979 525.765 465.974 522.409 466.955L522.406 466.956C519.975 467.666 517.57 468.369 515.213 469.003C509.499 470.541 503.784 471.764 497.755 472.045C496.667 472.095 495.506 472.178 494.296 472.264H494.296H494.295H494.295C491.482 472.465 488.407 472.685 485.386 472.56C481.047 472.381 477.4 471.493 475.265 469.239C472.749 466.584 471.741 461.866 471.417 455.864C471.258 452.919 471.267 449.777 471.29 446.575L471.298 445.639C471.321 442.756 471.344 439.838 471.252 437.049C471.05 430.967 470.301 425.05 467.42 421.203C465.93 419.214 463.89 417.802 461.187 417.2C458.526 416.609 455.316 416.822 451.467 417.882C444.362 419.839 441.146 427.276 439.587 434.666C439.411 435.501 439.254 436.344 439.113 437.192C438.1 429.717 436.452 421.795 433.742 414.799C431.106 407.993 427.408 401.91 422.166 398.008C416.86 394.058 410.119 392.453 401.706 394.365C388.454 397.377 379.355 407.067 372.059 418.125C368.405 423.663 365.161 429.611 362.065 435.318L361.794 435.817C358.784 441.367 355.913 446.659 352.894 451.223C348.265 458.218 344.18 462.019 339.392 463.892C334.563 465.78 328.78 465.808 320.507 464.694C316.424 464.144 311.872 463.075 307.787 461.254C303.695 459.429 300.174 456.896 297.998 453.476C297.382 452.508 297.175 451.006 297.207 449.093C297.222 448.173 297.288 447.234 297.355 446.294L297.355 446.293L297.356 446.282L297.357 446.275C297.422 445.355 297.489 444.413 297.489 443.572C297.489 440.111 297.558 436.818 297.731 433.62H307.218C310.299 433.62 313.616 433.753 317.095 433.893L317.097 433.894C317.634 433.915 318.174 433.937 318.718 433.958C322.772 434.118 327.005 434.26 331.211 434.179C339.594 434.017 348.06 432.971 354.998 429.279C360.933 426.122 368.345 418.391 372.705 409.936C377.028 401.55 378.707 391.649 371.699 384.859C359.639 373.177 344.081 370.82 330.366 375.109C316.682 379.389 304.789 390.293 299.918 405.178C297.006 414.075 295.556 422.116 294.918 430.62H290.695C290.701 420.868 288.442 410.945 284.12 401.312C276.193 383.645 263.457 373.993 248.429 369.583C238.345 366.623 227.262 366.032 215.948 366.897C222.845 364.626 229.714 362.07 236.253 359.022C251.712 351.814 265.519 341.772 273.672 326.016C277.586 318.451 279.909 307.533 279.016 297.353C278.124 287.18 273.969 277.389 264.532 272.67C260.311 270.56 254.742 270.427 249.508 271.088C244.224 271.756 239.022 273.266 235.354 274.697C224.716 278.846 217.08 284.118 210.894 290.86C204.73 297.578 200.061 305.699 195.285 315.445C165.294 376.652 141.834 443.677 139.208 512.38C139.177 513.208 139.822 513.905 140.65 513.937C141.478 513.968 142.174 513.323 142.206 512.495C144.809 444.377 168.081 377.782 197.979 316.765C202.718 307.093 207.236 299.284 213.104 292.888C218.95 286.517 226.189 281.492 236.444 277.492ZM307.218 430.62H297.927C298.559 422.392 299.972 414.659 302.769 406.111C307.325 392.19 318.461 381.976 331.262 377.972C344.033 373.978 358.417 376.17 369.611 387.014C375.106 392.337 374.215 400.46 370.038 408.562C365.896 416.595 358.876 423.818 353.589 426.631C347.289 429.983 339.404 431.02 331.153 431.179C327.043 431.259 322.887 431.121 318.836 430.961C318.297 430.939 317.76 430.918 317.224 430.896C313.751 430.756 310.365 430.62 307.218 430.62Z" fill="white"/>
</svg>
