<svg width="382" height="226" viewBox="0 0 382 226" fill="none" xmlns="http://www.w3.org/2000/svg">
<path fill-rule="evenodd" clip-rule="evenodd" d="M91.768 1.05404C92.509 0.683559 93.41 0.983895 93.7805 1.72486L93.8995 1.96268C94.7611 3.68366 95.6424 5.4441 96.2521 7.67966C99.0559 17.9601 101.03 28.5731 102.855 39.1717C103.22 41.2958 103.58 43.4184 103.939 45.5377L103.941 45.5509L103.941 45.5511L103.941 45.5512C105.377 54.0234 106.804 62.4436 108.575 70.698C109.268 73.9248 109.882 77.3195 110.504 80.758L110.504 80.7581L110.504 80.7584L110.585 81.2041C111.236 84.8043 111.902 88.4526 112.686 92.0607C114.256 99.2875 116.283 106.253 119.543 112.169C119.607 112.286 119.669 112.397 119.727 112.504C120.213 113.389 120.508 113.926 120.876 114.311C121.167 114.616 121.505 114.824 122.252 114.824C133.095 114.824 143.93 114.558 154.791 114.292H154.791H154.792L154.796 114.292C165.652 114.026 176.534 113.759 187.438 113.759C188.966 113.759 190.803 113.798 192.868 113.843C201.102 114.02 212.96 114.275 223.299 112.414C229.765 111.25 235.396 109.293 239.114 106.152C242.719 103.105 244.63 98.8644 243.574 92.6785C242.275 85.069 238.794 76.8865 233.824 69.8343C228.851 62.7768 222.461 56.9544 215.418 53.9359C201.869 48.1293 185.557 45.7427 172.697 53.2606C170.164 54.7415 168.24 57.4548 166.777 60.7083C165.323 63.9405 164.4 67.533 163.766 70.5519C162.547 76.3617 161.613 82.2439 160.704 88.168L160.551 89.1702L160.393 90.2035C159.591 95.4471 158.785 100.721 157.798 105.954C157.644 106.768 156.86 107.304 156.046 107.15C155.232 106.997 154.696 106.212 154.85 105.398C155.827 100.22 156.624 95.0012 157.427 89.7523L157.427 89.7509C157.531 89.0721 157.635 88.3928 157.739 87.713C158.648 81.7879 159.592 75.8337 160.83 69.9357C161.48 66.8397 162.456 63.0015 164.041 59.4776C165.616 55.9749 167.872 52.6065 171.183 50.6707C185.254 42.4445 202.698 45.2208 216.6 51.1784C224.291 54.4745 231.082 60.7342 236.277 68.1062C241.475 75.4836 245.149 84.0782 246.531 92.1736C247.763 99.3847 245.484 104.697 241.05 108.443C236.729 112.095 230.472 114.171 223.83 115.367C213.153 117.288 200.857 117.02 192.641 116.841C190.636 116.797 188.874 116.759 187.438 116.759C176.577 116.759 165.732 117.025 154.869 117.291L154.848 117.291L154.848 117.291C143.998 117.557 133.132 117.824 122.252 117.824C120.714 117.824 119.584 117.302 118.707 116.384C118.044 115.69 117.541 114.765 117.099 113.952C117.037 113.838 116.976 113.726 116.916 113.617C113.446 107.32 111.345 100.02 109.754 92.6977C108.957 89.0313 108.283 85.3339 107.633 81.7383L107.555 81.3107C106.931 77.8568 106.324 74.5055 105.642 71.3276C103.855 63.0027 102.415 54.5004 100.978 46.0217L100.978 46.0216L100.978 46.0215L100.978 46.0176L100.977 46.0116C100.619 43.8988 100.261 41.7875 99.8981 39.6808C98.0753 29.0951 96.1213 18.602 93.3578 8.46902C92.8279 6.52616 92.0658 5.00264 91.1841 3.24018L91.0972 3.0665C90.7267 2.32554 91.0271 1.42453 91.768 1.05404ZM362.255 46.0503C362.255 45.2219 361.584 44.5503 360.755 44.5503C359.927 44.5503 359.255 45.2219 359.255 46.0503C359.255 53.9033 361.156 61.3782 363.004 68.6466L363.004 68.6468L363.028 68.7404C364.899 76.0975 366.709 83.2477 366.709 90.7106C366.709 91.5142 366.743 92.3393 366.775 93.127C366.786 93.3922 366.797 93.6532 366.807 93.9078C366.844 94.9458 366.859 95.9162 366.785 96.8373C366.638 98.6533 366.155 100.167 364.9 101.421C362.804 103.518 359.867 104.653 356.575 105.145C353.289 105.637 349.776 105.47 346.69 105.076C340.247 104.253 334.024 99.4001 328.268 93.1949C324.33 88.9504 320.782 84.276 317.613 80.101C316.155 78.1806 314.778 76.3659 313.479 74.7473C306.92 66.5691 299.682 57.1843 296.276 47.3913C296.072 46.8058 295.908 46.3694 295.779 46.089C295.745 46.0154 295.705 45.9318 295.658 45.8492C295.625 45.7912 295.533 45.6315 295.382 45.4762C295.313 45.4049 295.13 45.2277 294.836 45.1128C294.475 44.9717 293.943 44.9351 293.453 45.2576C293.059 45.5167 292.909 45.873 292.86 46.0063C292.801 46.1676 292.781 46.3058 292.773 46.3775C292.745 46.6192 292.774 46.8573 292.786 46.9512V46.9515L292.786 46.9537C292.804 47.0952 292.83 47.2543 292.86 47.4171C292.921 47.7453 293.008 48.1527 293.109 48.5911C293.311 49.4712 293.579 50.53 293.828 51.4415C294.062 52.301 294.316 53.1675 294.488 53.5666C296.678 58.63 298.146 63.4276 299.752 68.7819C302.141 76.747 304.48 85.2577 301.616 92.9685C299.997 97.3273 295.397 100.629 289.817 102.337C284.255 104.039 278.177 104.008 274.055 102.176C267.388 99.2129 262.783 92.9084 259.298 85.415C256.437 79.2637 254.419 72.5168 252.613 66.4787C252.219 65.1627 251.835 63.8803 251.455 62.6452C251.212 61.8534 250.372 61.409 249.58 61.6526C248.789 61.8963 248.344 62.7357 248.588 63.5274C248.953 64.713 249.325 65.958 249.71 67.247L249.711 67.2486L249.715 67.2622L249.716 67.265L249.716 67.2653C251.522 73.3066 253.616 80.3111 256.578 86.6802C260.175 94.4137 265.182 101.515 272.837 104.917C277.808 107.127 284.668 107.05 290.695 105.206C296.705 103.366 302.346 99.6192 304.429 94.0131C307.697 85.2121 304.964 75.7162 302.625 67.9199C302.168 66.394 301.717 64.9004 301.255 63.423C304.399 68.1424 307.9 72.586 311.139 76.6244C312.347 78.1296 313.672 79.8753 315.099 81.7542C318.308 85.9813 322.03 90.8823 326.068 95.2352C331.894 101.514 338.744 107.086 346.31 108.051C349.544 108.464 353.358 108.66 357.019 108.112C360.675 107.565 364.309 106.255 367.021 103.543C368.953 101.611 369.594 99.314 369.775 97.0789C369.864 95.9744 369.843 94.8589 369.805 93.7985C369.794 93.5101 369.782 93.228 369.771 92.9504L369.771 92.9488C369.739 92.1799 369.709 91.4461 369.709 90.7106C369.709 82.8383 367.805 75.3512 365.955 68.0766L365.955 68.0763L365.936 68.0011C364.065 60.6436 362.255 53.5002 362.255 46.0503ZM295.758 46.5341C295.759 46.5344 295.759 46.5402 295.76 46.5506C295.759 46.539 295.758 46.5338 295.758 46.5341ZM377.03 119.967C376.69 119.212 375.802 118.875 375.046 119.215C374.291 119.555 373.954 120.443 374.294 121.198C375.014 122.798 375.419 124.545 375.862 126.455L375.862 126.455L375.862 126.456L375.862 126.458C375.939 126.788 376.017 127.123 376.097 127.463C376.625 129.689 377.277 132.098 378.673 134.192C379.132 134.881 380.064 135.067 380.753 134.608C381.442 134.148 381.628 133.217 381.169 132.528C380.099 130.923 379.542 128.988 379.016 126.771C378.96 126.536 378.905 126.297 378.849 126.055L378.797 125.83L378.797 125.829C378.359 123.933 377.881 121.859 377.03 119.967ZM53.429 12.6614C53.2182 11.8603 52.3978 11.3817 51.5967 11.5925C50.7955 11.8034 50.317 12.6237 50.5278 13.4249C51.7403 18.0325 53.6934 22.5435 55.7745 26.9072C56.5371 28.5063 57.3107 30.0735 58.0742 31.6205L58.0743 31.6207C59.4198 34.347 60.7343 37.0101 61.903 39.6732C69.9482 58.0039 76.4697 76.519 80.68 96.0546C80.9565 97.3376 81.3398 98.8675 81.7663 100.57L81.7664 100.57L81.7665 100.57C82.8226 104.785 84.1432 110.056 84.7611 115.246C85.1916 118.862 85.2553 122.287 84.6754 125.126C84.0979 127.953 82.9194 130.041 80.9884 131.265C77.4045 133.536 73.1697 135.406 69.0409 135.93C64.9495 136.449 61.04 135.645 57.8511 132.676C54.2778 129.349 51.4877 125.216 48.6323 120.874C48.4839 120.648 48.3353 120.422 48.1863 120.195C45.5034 116.11 42.7209 111.873 39.2072 108.293C35.9975 105.023 32.8299 103.352 29.6868 103.059C26.5419 102.766 23.6842 103.877 21.146 105.639C18.6205 107.393 16.319 109.853 14.2284 112.441C12.5539 114.513 10.9662 116.73 9.48925 118.792L9.48818 118.793C9.12153 119.305 8.76171 119.808 8.40908 120.296C6.78915 122.539 6.19277 124.883 6.36999 127.197C6.54445 129.474 7.45956 131.626 8.69756 133.56C11.1593 137.405 15.0976 140.694 18.093 142.857C21.0082 144.962 24.5617 146.628 28.111 147.954C25.2236 147.977 22.4202 148.228 19.7915 148.878C13.4797 150.438 8.2164 154.285 4.97899 162.379C-0.620049 176.377 -3.03788 195.595 7.13922 208.694C16.0232 220.129 28.9462 223.962 42.4545 224.995C49.211 225.511 56.1748 225.332 62.9269 225.029C64.6258 224.953 66.3085 224.869 67.9712 224.786L67.9901 224.785L67.9908 224.785C72.9615 224.537 77.7534 224.299 82.2646 224.299H82.3456H82.4266H82.5076H82.5885H82.6695H82.7505H82.8315H82.9125H82.9935H83.0745H83.1555H83.2365H83.3174H83.3984H83.4794H83.5604H83.6414H83.7224H83.8034H83.8844H83.9653H84.0463H84.1273H84.2083H84.2893H84.3703H84.4513H84.5323H84.6133H84.6942H84.7752H84.8562H84.9372H85.0182H85.0992H85.1802H85.2612H85.3421H85.4231H85.5041H85.5851H85.6661H85.7471H85.8281H85.9091H85.9901H86.071H86.152H86.233H86.314H86.395H86.476H86.557H86.638H86.7189H86.7999H86.8809H86.9619H87.0429H87.1239H87.2049H87.2859H87.3669H87.4478H87.5288H87.6098H87.6908H87.7718H87.8528H87.9338H88.0148H88.0957H88.1767H88.2577H88.3387H88.4197H88.5007H88.5817H88.6627H88.7437H88.8246H88.9056H88.9866H89.0676H89.1486H89.2296H89.3106H89.3916H89.4725H89.5535H89.6345H89.7155H89.7965H89.8775H89.9585H90.0395H90.1205H90.2014H90.2824H90.3634H90.4444H90.5254H90.6064H90.6874H90.7684H90.8493H90.9303H91.0113H91.0923H91.1733H91.2543H91.3353H91.4163H91.4973H91.5782H91.6592H91.7402H91.8212H91.9022H91.9832H92.0642H92.1452H92.2262H92.3071H92.3881H92.4691H92.5501H92.6311H92.7121H92.7931H92.8741H92.955H93.036H93.117H93.198H93.279H93.36H93.441H93.522H93.603H93.6839H93.7649H93.8459H93.9269H94.0079H94.0889H94.1699H94.2509H94.3318H94.4128H94.4938H94.5748H94.6558H94.7368H94.8178H94.8988H94.9798H95.0607H95.1417H95.2227H95.3037H95.3847H95.4657H95.5467H95.6277H95.7086H95.7896H95.8706H95.9516H96.0326H96.1136H96.1946H96.2756H96.3566H96.4375H96.5185H96.5995H96.6805H96.7615H96.8425H96.9235H97.0045H97.0854H97.1664H97.2474H97.3284H97.4094H97.4904H97.5714H97.6524H97.7334H97.8143H97.8953H97.9763H98.0573H98.1383H98.2193H98.3003H98.3813H98.4623H98.5432H98.6242H98.7052H98.7862H98.8672H98.9482H99.0292H99.1102H99.1911H99.2721H99.3531H99.4341H99.5151H99.5961H99.6771H99.7581H99.8391H99.92H100.001H100.082H100.163H100.244H100.325H100.406H100.487H100.568H100.649H100.73H100.811H100.892H100.973H101.054H101.135H101.216H101.297H101.378H101.459H101.54H101.621H101.702H101.783H101.864H101.945H102.026H102.107H102.188H102.269H102.35H102.431H102.512H102.593H102.674H102.755H102.836H102.917H102.998H103.079H103.16H103.241H103.322H103.403H103.484H103.565H103.646H103.726H103.807H103.888H103.969H104.05H104.131H104.212H104.293H104.374H104.455H104.536H104.617H104.698H104.779H104.86H104.941H105.022H105.103H105.184H105.265H105.346H105.427H105.508H105.589H105.67H105.751H105.832H105.913H105.994H106.075H106.156H106.237H106.318H106.399H106.48H106.561H106.642H106.723H106.804H106.885H106.966H107.047H107.128H107.209H107.29H107.371H107.452H107.533H107.614H107.695H107.776H107.857H107.938H108.019H108.1H108.181H108.262H108.343H108.424H108.505H108.586H108.667H108.748H108.829H108.91H108.991H109.072H109.153H109.234H109.315H109.396H109.477H109.558H109.639H109.72H109.801H109.882H109.963H110.044H110.125H110.206H110.287H110.368H110.449H110.53H110.611H110.691H110.772H110.853H110.934H111.015H111.096H111.177H111.258H111.339H111.42H111.501H111.582H111.663H111.744H111.825H111.906H111.987H112.068H112.149H112.23H112.311H112.392H112.473H112.554H112.635H112.716H112.797H112.878H112.959H113.04H113.121H113.202H113.283H113.364H113.445H113.526H113.607H113.688H113.769H113.85H113.931H114.012H114.093H114.174H114.255H114.336H114.417H114.498H114.579H114.66H114.741H114.822H114.903H114.984H115.065H115.146H115.227H115.308H115.389H115.47H115.551H115.632H115.713H115.794H115.875H115.956H116.037H116.118H116.199H116.28H116.361H116.442H116.523H116.604H116.685H116.766H116.847H116.928H117.009H117.09H117.171H117.252H117.333H117.414H117.495H117.576H117.656H117.737H117.818H117.899H117.98H118.061H118.142H118.223H118.304H118.385H118.466H118.547H118.628H118.709H118.79H118.871H118.952H119.033H119.114H119.195H119.276H119.357H119.438H119.519H119.6H119.681H119.762H119.843H119.924H120.005H120.086H120.167H120.248H120.329H120.41H120.491H120.572H120.653H120.734H120.815H120.896H120.977H121.058H121.139H121.22H121.301H121.382H121.463H121.544H121.625H121.706H121.787H121.868H121.949H122.03H122.111H122.192H122.273H122.354H122.435H122.516H122.597H122.678H122.759H122.84H122.921H123.002H123.083H123.164H123.245H123.326H123.407H123.488H123.569H123.65H123.731C133.224 224.299 142.577 223.658 151.876 222.94C153.203 222.838 154.529 222.734 155.855 222.63L155.911 222.625C163.866 222.001 171.79 221.38 179.8 221.103C180.628 221.075 181.276 220.381 181.247 219.553C181.219 218.725 180.524 218.077 179.697 218.105C171.616 218.384 163.618 219.011 155.667 219.635H155.666C154.325 219.741 152.984 219.846 151.645 219.949C142.353 220.666 133.1 221.299 123.731 221.299H123.65H123.569H123.488H123.407H123.326H123.245H123.164H123.083H123.002H122.921H122.84H122.759H122.678H122.597H122.516H122.435H122.354H122.273H122.192H122.111H122.03H121.949H121.868H121.787H121.706H121.625H121.544H121.463H121.382H121.301H121.22H121.139H121.058H120.977H120.896H120.815H120.734H120.653H120.572H120.491H120.41H120.329H120.248H120.167H120.086H120.005H119.924H119.843H119.762H119.681H119.6H119.519H119.438H119.357H119.276H119.195H119.114H119.033H118.952H118.871H118.79H118.709H118.628H118.547H118.466H118.385H118.304H118.223H118.142H118.061H117.98H117.899H117.818H117.737H117.656H117.576H117.495H117.414H117.333H117.252H117.171H117.09H117.009H116.928H116.847H116.766H116.685H116.604H116.523H116.442H116.361H116.28H116.199H116.118H116.037H115.956H115.875H115.794H115.713H115.632H115.551H115.47H115.389H115.308H115.227H115.146H115.065H114.984H114.903H114.822H114.741H114.66H114.579H114.498H114.417H114.336H114.255H114.174H114.093H114.012H113.931H113.85H113.769H113.688H113.607H113.526H113.445H113.364H113.283H113.202H113.121H113.04H112.959H112.878H112.797H112.716H112.635H112.554H112.473H112.392H112.311H112.23H112.149H112.068H111.987H111.906H111.825H111.744H111.663H111.582H111.501H111.42H111.339H111.258H111.177H111.096H111.015H110.934H110.853H110.772H110.691H110.611H110.53H110.449H110.368H110.287H110.206H110.125H110.044H109.963H109.882H109.801H109.72H109.639H109.558H109.477H109.396H109.315H109.234H109.153H109.072H108.991H108.91H108.829H108.748H108.667H108.586H108.505H108.424H108.343H108.262H108.181H108.1H108.019H107.938H107.857H107.776H107.695H107.614H107.533H107.452H107.371H107.29H107.209H107.128H107.047H106.966H106.885H106.804H106.723H106.642H106.561H106.48H106.399H106.318H106.237H106.156H106.075H105.994H105.913H105.832H105.751H105.67H105.589H105.508H105.427H105.346H105.265H105.184H105.103H105.022H104.941H104.86H104.779H104.698H104.617H104.536H104.455H104.374H104.293H104.212H104.131H104.05H103.969H103.888H103.807H103.726H103.646H103.565H103.484H103.403H103.322H103.241H103.16H103.079H102.998H102.917H102.836H102.755H102.674H102.593H102.512H102.431H102.35H102.269H102.188H102.107H102.026H101.945H101.864H101.783H101.702H101.621H101.54H101.459H101.378H101.297H101.216H101.135H101.054H100.973H100.892H100.811H100.73H100.649H100.568H100.487H100.406H100.325H100.244H100.163H100.082H100.001H99.92H99.8391H99.7581H99.6771H99.5961H99.5151H99.4341H99.3531H99.2721H99.1911H99.1102H99.0292H98.9482H98.8672H98.7862H98.7052H98.6242H98.5432H98.4623H98.3813H98.3003H98.2193H98.1383H98.0573H97.9763H97.8953H97.8143H97.7334H97.6524H97.5714H97.4904H97.4094H97.3284H97.2474H97.1664H97.0854H97.0045H96.9235H96.8425H96.7615H96.6805H96.5995H96.5185H96.4375H96.3566H96.2756H96.1946H96.1136H96.0326H95.9516H95.8706H95.7896H95.7086H95.6277H95.5467H95.4657H95.3847H95.3037H95.2227H95.1417H95.0607H94.9798H94.8988H94.8178H94.7368H94.6558H94.5748H94.4938H94.4128H94.3318H94.2509H94.1699H94.0889H94.0079H93.9269H93.8459H93.7649H93.6839H93.603H93.522H93.441H93.36H93.279H93.198H93.117H93.036H92.955H92.8741H92.7931H92.7121H92.6311H92.5501H92.4691H92.3881H92.3071H92.2262H92.1452H92.0642H91.9832H91.9022H91.8212H91.7402H91.6592H91.5782H91.4973H91.4163H91.3353H91.2543H91.1733H91.0923H91.0113H90.9303H90.8493H90.7684H90.6874H90.6064H90.5254H90.4444H90.3634H90.2824H90.2014H90.1205H90.0395H89.9585H89.8775H89.7965H89.7155H89.6345H89.5535H89.4725H89.3916H89.3106H89.2296H89.1486H89.0676H88.9866H88.9056H88.8246H88.7437H88.6627H88.5817H88.5007H88.4197H88.3387H88.2577H88.1767H88.0957H88.0148H87.9338H87.8528H87.7718H87.6908H87.6098H87.5288H87.4478H87.3669H87.2859H87.2049H87.1239H87.0429H86.9619H86.8809H86.7999H86.7189H86.638H86.557H86.476H86.395H86.314H86.233H86.152H86.071H85.9901H85.9091H85.8281H85.7471H85.6661H85.5851H85.5041H85.4231H85.3421H85.2612H85.1802H85.0992H85.0182H84.9372H84.8562H84.7752H84.6942H84.6133H84.5323H84.4513H84.3703H84.2893H84.2083H84.1273H84.0463H83.9653H83.8844H83.8034H83.7224H83.6414H83.5604H83.4794H83.3984H83.3174H83.2365H83.1555H83.0745H82.9935H82.9125H82.8315H82.7505H82.6695H82.5885H82.5076H82.4266H82.3456H82.2646C77.6724 221.299 72.7735 221.543 67.7824 221.792L67.7794 221.792C66.1246 221.874 64.4597 221.958 62.7924 222.032C56.0628 222.334 49.2495 222.506 42.6832 222.004C29.5458 220.999 17.64 217.32 9.50826 206.854C0.338744 195.051 2.28512 177.191 7.76442 163.493C10.6369 156.312 15.1216 153.123 20.5116 151.79C26.068 150.416 32.6231 150.999 39.654 151.653C40.7338 151.753 41.5288 151.819 42.0838 151.854C42.3599 151.872 42.5907 151.883 42.7739 151.887H42.7743C42.901 151.889 43.1617 151.894 43.3983 151.846C43.4615 151.833 43.6302 151.796 43.8199 151.697C43.9501 151.629 44.5448 151.293 44.6262 150.513C44.7045 149.762 44.226 149.315 44.1327 149.231C43.9827 149.096 43.8383 149.02 43.7822 148.991C43.578 148.888 43.3443 148.827 43.2449 148.801L43.2445 148.801L43.2399 148.8C42.9548 148.726 42.5382 148.638 42.0775 148.548C41.4885 148.431 40.7954 148.302 40.0816 148.169L40.0797 148.169C38.4253 147.861 36.6604 147.532 35.8229 147.296C30.4437 145.779 24.2519 143.605 19.8495 140.425C16.9438 138.327 13.3764 135.304 11.2241 131.942C10.1551 130.272 9.48602 128.597 9.36123 126.968C9.2392 125.374 9.62848 123.732 10.8411 122.052C11.2084 121.544 11.5783 121.028 11.9514 120.507L11.9526 120.505L11.9527 120.505C13.4253 118.449 14.9479 116.324 16.5619 114.326C18.5852 111.822 20.6766 109.617 22.857 108.103C25.0248 106.598 27.1863 105.839 29.4084 106.046C31.6322 106.253 34.1791 107.453 37.0662 110.394C40.3677 113.758 43.0018 117.768 45.7274 121.916L45.7274 121.916L46.1257 122.522C48.9619 126.835 51.9324 131.264 55.8068 134.872C59.7992 138.589 64.6729 139.508 69.4184 138.906C74.1265 138.309 78.7823 136.215 82.5944 133.799C85.4502 131.988 86.94 129.029 87.6148 125.726C88.2871 122.435 88.187 118.645 87.74 114.891C87.0979 109.498 85.6866 103.862 84.6209 99.6066C84.2136 97.9802 83.8567 96.5553 83.6126 95.4226C79.3497 75.6428 72.7542 56.9325 64.6501 38.4675C63.4581 35.7516 62.0867 32.9719 60.718 30.1979L60.718 30.1978C59.9617 28.6648 59.2062 27.1336 58.4823 25.6158C56.4231 21.298 54.5683 16.9908 53.429 12.6614Z" fill="white"/>
</svg>
