<svg width="313" height="411" viewBox="0 0 313 411" fill="none" xmlns="http://www.w3.org/2000/svg">
<path fill-rule="evenodd" clip-rule="evenodd" d="M196.04 99.1024C263.329 116.843 313 178.797 313 252.5C313 340.037 242.933 411 156.5 411C70.0674 411 0 340.037 0 252.5C0 164.963 70.0674 94 156.5 94C163.952 94 171.282 94.5275 178.456 95.5476C185.833 81.8188 194.151 68.5141 202.417 56.412C230.041 15.9705 257.09 -11.0432 246.5 4.412C238.264 16.4326 221.702 48.0761 205.861 79.4873C213.48 77.1449 222.187 71.4588 232.061 65.0102C243.187 57.7439 255.796 49.5095 270 44C270 44 313.5 59.912 303.5 69.5C293.5 79.088 270 86 270 86L205.045 81.1062C201.989 87.1741 198.966 93.2206 196.04 99.1024ZM202.417 56.412L166.417 32.912C148.318 16.2052 127.764 22.6424 111 35.412C111 35.412 124 62.912 139.5 56.412C155 49.912 202.417 56.412 202.417 56.412Z" fill="#3E8625" fill-opacity="0.87"/>
</svg>
